<svg width="42" height="42" viewBox="0 0 42 42" fill="none" xmlns="http://www.w3.org/2000/svg">
<path d="M0.5 21C0.5 9.67816 9.67816 0.5 21 0.5C32.3218 0.5 41.5 9.67816 41.5 21C41.5 32.3218 32.3218 41.5 21 41.5C9.67816 41.5 0.5 32.3218 0.5 21Z" stroke="#090909" stroke-opacity="0.4"/>
<g clip-path="url(#clip0_1_399)">
<path d="M12.674 21.0076L17.464 12.9843C17.7353 12.5299 17.7353 11.7943 17.464 11.3399C17.1927 10.8854 16.752 10.8854 16.48 11.3399L11.204 20.1765C10.932 20.6321 10.932 21.3676 11.204 21.8221L16.48 30.6576C16.7513 31.111 17.192 31.111 17.464 30.6576C17.736 30.2043 17.7353 29.4687 17.464 29.0143L12.674 21.0076Z" fill="black"/>
<path fill-rule="evenodd" clip-rule="evenodd" d="M31 20.9998C31 21.6142 30.702 22.1109 30.3333 22.1109H11.6667C11.2993 22.1109 11 21.6142 11 20.9998C11 20.3864 11.2993 19.8887 11.6667 19.8887H30.3347C30.7027 19.8887 31 20.3864 31 20.9998Z" fill="black"/>
</g>
<defs>
<clipPath id="clip0_1_399">
<rect width="20" height="20" fill="white" transform="translate(11 11)"/>
</clipPath>
</defs>
</svg>
