<svg width="42" height="42" viewBox="0 0 42 42" fill="none" xmlns="http://www.w3.org/2000/svg">
<path d="M0.5 21C0.5 9.67816 9.67816 0.5 21 0.5C32.3218 0.5 41.5 9.67816 41.5 21C41.5 32.3218 32.3218 41.5 21 41.5C9.67816 41.5 0.5 32.3218 0.5 21Z" stroke="#090909" stroke-opacity="0.4"/>
<g clip-path="url(#clip0_1_426)">
<path d="M24.5366 29.0132C24.2653 29.4676 24.2653 30.2032 24.5366 30.6565C24.808 31.1099 25.2486 31.1099 25.5206 30.6565L30.7966 21.821C31.0686 21.3665 31.0686 20.631 30.7966 20.1754L25.5206 11.3399C25.2493 10.8854 24.8086 10.8854 24.5366 11.3399C24.2646 11.7943 24.2653 12.5299 24.5366 12.9843L29.3266 21.0076L24.5366 29.0132Z" fill="black"/>
<path fill-rule="evenodd" clip-rule="evenodd" d="M11.6667 19.8887H30.334C30.7013 19.8887 31.0007 20.3864 31.0007 20.9998C31.0007 21.6142 30.7013 22.1109 30.334 22.1109H11.6667C11.298 22.1109 11 21.6142 11 20.9998C11 20.3864 11.298 19.8887 11.6667 19.8887Z" fill="black"/>
</g>
<defs>
<clipPath id="clip0_1_426">
<rect width="20" height="20" fill="white" transform="translate(11 11)"/>
</clipPath>
</defs>
</svg>
